<?xml version="1.0" encoding="iso-8859-1"?>
<!-- Generator: Adobe Illustrator 19.0.0, SVG Export Plug-In . SVG Version: 6.00 Build 0)  -->
<svg version="1.1" id="Capa_1" xmlns="http://www.w3.org/2000/svg" xmlns:xlink="http://www.w3.org/1999/xlink" x="0px" y="0px"
	 viewBox="0 0 512 512" style="enable-background:new 0 0 512 512;fill:#558af2;" xml:space="preserve">
<g>
	<g>
		<path d="M376.564,308.847h-89.961v-49.211c0-38.093-30.964-69.083-69.023-69.083h-7.552v49.421
			c0,24.152-12.98,46.681-33.874,58.796l-26.633,15.444v-15.42H41.786v17.117H0v15.103h41.786v135.929H0v15.103h41.786v17.117
			h107.737v-16.202l60.913,27.277h96.349c15.268,0,27.689-12.421,27.689-27.689v-17.042c14.09-3.406,24.588-16.122,24.588-31.245
			v-12.672c12.851-3.355,22.363-15.062,22.363-28.95v-19.705c15.472-2.35,27.366-15.743,27.366-31.862
			C408.792,323.305,394.335,308.847,376.564,308.847z M134.419,484.059h-77.53V313.896h77.53V484.059z M376.564,358.199h-2.69
			h-7.552h-80.508v15.103h80.508v19.339c0,8.167-6.644,14.811-14.811,14.811h-3.689h-3.862h-58.146v15.103h58.146v11.707
			c0,9.394-7.643,17.036-17.037,17.036h-3.688h-3.863h-33.556v15.103h33.556v16.146c0,6.94-5.646,12.586-12.586,12.586h-93.122
			l-64.14-28.722V331.671l34.21-19.837c25.537-14.807,41.4-42.342,41.4-71.861v-33.791c26.17,3.688,46.368,26.253,46.368,53.452
			v64.315h105.064c9.442,0,17.124,7.682,17.124,17.124C393.688,350.516,386.007,358.199,376.564,358.199z"/>
	</g>
</g>
<g>
	<g>
		<polygon points="114.281,1.762 114.281,249.455 192.405,249.455 192.405,234.352 129.384,234.352 129.384,16.865 496.897,16.865 
			496.897,234.352 433.466,234.352 433.439,296.697 334.421,234.352 302.397,234.352 302.397,249.455 330.062,249.455 
			448.53,324.046 448.563,249.455 512,249.455 512,1.762 		"/>
	</g>
</g>
<g>
	<g>
		<path d="M256.873,106.72l-39.043-5.673l-17.46-35.379l-17.46,35.379l-39.043,5.673l28.252,27.539l-6.67,38.885l34.921-18.359
			l34.921,18.359l-6.67-38.885L256.873,106.72z M215.231,145.536l-14.862-7.814l-14.862,7.813l2.838-16.55l-12.023-11.72
			l16.616-2.413l7.431-15.057l7.431,15.057l16.616,2.414l-12.023,11.72L215.231,145.536z"/>
	</g>
</g>
<g>
	<g>
		<path d="M369.14,74.584l-39.043-5.673l-17.46-35.378l-17.46,35.378l-39.043,5.673l28.252,27.539l-6.67,38.885l34.921-18.359
			l34.921,18.359l-6.67-38.885L369.14,74.584z M327.499,113.4l-14.862-7.813l-14.862,7.813l2.838-16.55l-12.023-11.72l16.616-2.414
			l7.431-15.057l7.431,15.057l16.616,2.414L324.66,96.85L327.499,113.4z"/>
	</g>
</g>
<g>
	<g>
		<path d="M481.408,106.72l-39.043-5.673l-17.46-35.379l-17.46,35.379l-39.043,5.673l28.251,27.539l-6.67,38.885l34.922-18.359
			l34.921,18.359l-6.67-38.885L481.408,106.72z M439.766,145.536l-14.862-7.814l-14.862,7.813l2.838-16.55l-12.023-11.72
			l16.616-2.413l7.431-15.057l7.431,15.057l16.616,2.414l-12.023,11.72L439.766,145.536z"/>
	</g>
</g>
<g>
	<g>
		<rect x="335.795" y="165.884" width="15.103" height="15.103"/>
	</g>
</g>
<g>
	<g>
		<rect x="275.383" y="165.884" width="15.103" height="15.103"/>
	</g>
</g>
<g>
	<g>
		<rect x="305.589" y="165.884" width="15.103" height="15.103"/>
	</g>
</g>
<g>
	<g>
		<rect x="44.303" y="153.298" width="15.103" height="15.103"/>
	</g>
</g>
<g>
	<g>
		<rect x="14.096" y="153.298" width="15.103" height="15.103"/>
	</g>
</g>
<g>
	<g>
		<rect x="74.509" y="153.298" width="15.103" height="15.103"/>
	</g>
</g>
<g>
	<g>
		<rect x="74.509" y="82.816" width="15.103" height="15.103"/>
	</g>
</g>
<g>
	<g>
		<rect x="44.303" y="82.816" width="15.103" height="15.103"/>
	</g>
</g>
<g>
	<g>
		<rect x="14.096" y="82.816" width="15.103" height="15.103"/>
	</g>
</g>
<g>
	<g>
		<rect x="241.148" y="290.607" width="15.103" height="15.103"/>
	</g>
</g>
<g>
	<g>
		<rect x="241.148" y="248.952" width="15.103" height="26.557"/>
	</g>
</g>
<g>
	<g>
		<polygon points="205.058,316.929 164.625,340.373 164.625,370.785 179.729,370.785 179.729,349.074 212.635,329.994 		"/>
	</g>
</g>
<g>
	<g>
		<rect x="164.625" y="385.888" width="15.103" height="15.103"/>
	</g>
</g>
<g>
	<g>
		<rect x="70.482" y="328.999" width="50.344" height="15.103"/>
	</g>
</g>
<g>
	<g>
		<polygon points="144.488,31.969 144.488,64.692 159.591,64.692 159.591,47.072 192.315,47.072 192.315,31.969 		"/>
	</g>
</g>
<g>
	<g>
		<rect x="207.418" y="31.969" width="15.103" height="15.103"/>
	</g>
</g>
<g>
	<g>
		<rect x="403.76" y="204.146" width="15.103" height="15.103"/>
	</g>
</g>
<g>
	<g>
		<polygon points="466.69,186.525 466.69,204.146 433.967,204.146 433.967,219.249 481.794,219.249 481.794,186.525 		"/>
	</g>
</g>
<g>
	<g>
		<rect x="423.898" y="31.969" width="50.344" height="15.103"/>
	</g>
</g>
<g>
	<g>
		<rect x="393.691" y="31.969" width="15.103" height="15.103"/>
	</g>
</g>
<g>
</g>
<g>
</g>
<g>
</g>
<g>
</g>
<g>
</g>
<g>
</g>
<g>
</g>
<g>
</g>
<g>
</g>
<g>
</g>
<g>
</g>
<g>
</g>
<g>
</g>
<g>
</g>
<g>
</g>
</svg>
