<svg height="512pt" viewBox="0 -22 512.00002 512" width="512pt" xmlns="http://www.w3.org/2000/svg" style="fill:#fff;"><path d="m474.5 422c-4.140625 0-7.5 3.359375-7.5 7.5v15c0 4.140625 3.359375 7.5 7.5 7.5s7.5-3.359375 7.5-7.5v-15c0-4.140625-3.359375-7.5-7.5-7.5zm0 0"/><path d="m444.5 392c-4.140625 0-7.5 3.359375-7.5 7.5v15c0 4.140625 3.359375 7.5 7.5 7.5s7.5-3.359375 7.5-7.5v-15c0-4.140625-3.359375-7.5-7.5-7.5zm0 0"/><path d="m504.5 358h-112.5v-30h7.5c4.140625 0 7.5-3.359375 7.5-7.5v-165.785156c50.269531-3.84375 90-45.976563 90-97.214844 0-4.140625-3.359375-7.5-7.5-7.5s-7.5 3.359375-7.5 7.5c0 43.34375-33.605469 78.960938-76.125 82.230469-2.433594-8.25-8.640625-14.894531-16.613281-17.933594 10.867187-9.625 17.738281-23.671875 17.738281-39.296875v-30c0-28.949219-23.550781-52.5-52.5-52.5s-52.5 23.550781-52.5 52.5v30c0 15.625 6.871094 29.671875 17.738281 39.296875-7.972656 3.039063-14.179687 9.683594-16.613281 17.933594-42.519531-3.269531-76.125-38.886719-76.125-82.230469 0-4.140625-3.359375-7.5-7.5-7.5s-7.5 3.359375-7.5 7.5c0 51.238281 39.730469 93.371094 90 97.214844v165.785156c0 4.140625 3.359375 7.5 7.5 7.5h7.5v30h-18.820312l-75.382813-97.488281v-70.4375c0-4.140625-3.355469-7.5-7.5-7.5h-45c-4.140625 0-7.5 3.359375-7.5 7.5v30c0 4.144531 3.359375 7.5 7.5 7.5h37.5v32.953125l-19.933594 25.941406-56.863281-73.53125v-115.4375c0-4.140625-3.359375-7.5-7.5-7.5h-90c-4.140625 0-7.5 3.359375-7.5 7.5v60c0 4.140625 3.359375 7.5 7.5 7.5h82.5v47.9375l-114.433594 147.972656c-1.75 2.265625-2.058594 5.324219-.800781 7.894532 1.261719 2.566406 3.875 4.195312 6.734375 4.195312h231.929688.074218.074219 54.917969 22.503906v15h-22.5c-4.144531 0-7.5 3.359375-7.5 7.5v53.59375l-9.871094 3.292969c-3.933594 1.308593-6.054687 5.554687-4.746094 9.484375 1.046876 3.144531 3.972657 5.132812 7.113282 5.132812.785156 0 1.585937-.125 2.375-.390625l14.851562-4.949219c.019532-.007812 30.148438-10.050781 30.148438-10.050781 3.0625-1.019531 5.125-3.886719 5.125-7.113281v-71.5h45v71.5c0 3.226562 2.066406 6.09375 5.128906 7.113281l30.128906 10.042969c.019532.007812 14.871094 4.957031 14.871094 4.957031.789062.265625 1.585938.390625 2.375.390625 3.140625 0 6.066406-1.988281 7.113281-5.132812 1.308594-3.929688-.8125-8.175782-4.746093-9.484375l-9.867188-3.292969v-53.59375c0-4.140625-3.359375-7.5-7.5-7.5h-22.5v-15h112.5c4.140625 0 7.5-3.359375 7.5-7.5s-3.359375-7.5-7.5-7.5zm-326.703125-145.425781v-15h30v15zm-54.296875 15.1875 35.109375 45.394531c-10.539063 6.453125-22.535156 9.84375-35.109375 9.84375s-24.570312-3.390625-35.109375-9.84375zm-82.5-77.761719v-45h75v45zm-18.21875 208 56.386719-72.914062c13.222656 8.464843 28.398437 12.914062 44.332031 12.914062 15.929688 0 31.109375-4.449219 44.328125-12.914062l56.390625 72.914062zm174.570312-59.261719 17.964844-23.378906 63.902344 82.640625h-36.039062zm104.648438 145.355469v-41.09375h15v36.09375zm105-41.09375v41.09375l-15-5v-36.09375zm-30-90v-23.070312c0-2.4375-1.183594-4.71875-3.171875-6.125-1.984375-1.40625-4.53125-1.757813-6.828125-.949219-8.039062 2.84375-16.960938 2.84375-25 0-2.296875-.808594-4.84375-.457031-6.828125.949219-1.988281 1.40625-3.171875 3.6875-3.171875 6.125v23.070312h-15v-58h75v58zm-15-88v15h-15v-15zm30 0v15h-15v-15zm-60 15h-15v-15h15zm22.5-225c20.679688 0 37.5 16.820312 37.5 37.5v2.5h-15.140625c-5.652344-6.324219-13.746094-10-22.359375-10s-16.707031 3.675781-22.359375 10h-15.140625v-2.5c0-20.679688 16.820312-37.5 37.5-37.5zm-37.5 67.5v-12.5h18.792969c2.5 0 4.839843-1.246094 6.230469-3.328125 2.796874-4.179687 7.460937-6.671875 12.476562-6.671875s9.679688 2.492188 12.476562 6.671875c1.394532 2.082031 3.730469 3.328125 6.234376 3.328125h18.789062v12.5c0 20.679688-16.820312 37.5-37.5 37.5s-37.5-16.820312-37.5-37.5zm12.5 52.5h50c6.894531 0 12.5 5.605469 12.5 12.5v62.5h-75v-62.5c0-6.890625 5.609375-12.5 12.5-12.5zm2.5 223v-30h7.5c4.140625 0 7.5-3.359375 7.5-7.5v-21.035156c4.949219.710937 10.050781.710937 15 0v21.035156c0 4.140625 3.359375 7.5 7.5 7.5h7.5v30zm0 0"/><path d="m37.5 422c-4.140625 0-7.5 3.359375-7.5 7.5v15c0 4.140625 3.359375 7.5 7.5 7.5s7.5-3.359375 7.5-7.5v-15c0-4.140625-3.359375-7.5-7.5-7.5zm0 0"/><path d="m67.5 392c-4.140625 0-7.5 3.359375-7.5 7.5v15c0 4.140625 3.359375 7.5 7.5 7.5s7.5-3.359375 7.5-7.5v-15c0-4.140625-3.359375-7.5-7.5-7.5zm0 0"/><path d="m97.5 422c-4.140625 0-7.5 3.359375-7.5 7.5v15c0 4.140625 3.359375 7.5 7.5 7.5s7.5-3.359375 7.5-7.5v-15c0-4.140625-3.359375-7.5-7.5-7.5zm0 0"/></svg>