<?xml version="1.0" encoding="iso-8859-1"?>
<!-- Generator: Adobe Illustrator 19.0.0, SVG Export Plug-In . SVG Version: 6.00 Build 0)  -->
<svg version="1.1" id="Capa_1" xmlns="http://www.w3.org/2000/svg" xmlns:xlink="http://www.w3.org/1999/xlink" x="0px" y="0px"
	 viewBox="0 0 501.216 501.216" style="enable-background:new 0 0 501.216 501.216; fill:#fff;" xml:space="preserve">
<g>
	<g>
		<path d="M426.608,2.608c-13.232,0-24,10.768-24,24c0,1.088,0.184,2.128,0.32,3.176L355,57.168c-4.296-4.04-10.04-6.56-16.392-6.56
			s-12.096,2.52-16.392,6.56l-47.928-27.384c0.136-1.048,0.32-2.088,0.32-3.176c0-13.232-10.768-24-24-24s-24,10.768-24,24
			c0,1.288,0.184,2.536,0.384,3.768L178.552,56.8c-4.256-3.808-9.8-6.192-15.944-6.192s-11.688,2.384-15.936,6.192l-48.44-26.424
			c0.192-1.232,0.376-2.48,0.376-3.768c0-13.232-10.768-24-24-24s-24,10.768-24,24s10.768,24,24,24
			c6.144,0,11.688-2.384,15.936-6.192l48.44,26.424c-0.192,1.232-0.376,2.48-0.376,3.768c0,13.232,10.768,24,24,24s24-10.768,24-24
			c0-1.288-0.184-2.536-0.384-3.768l48.44-26.424c4.256,3.808,9.8,6.192,15.944,6.192c6.352,0,12.096-2.52,16.392-6.56
			l47.928,27.392c-0.136,1.04-0.32,2.08-0.32,3.168c0,13.232,10.768,24,24,24s24-10.768,24-24c0-1.088-0.184-2.128-0.32-3.176
			l47.928-27.392c4.296,4.048,10.04,6.568,16.392,6.568c13.232,0,24-10.768,24-24S439.84,2.608,426.608,2.608z M74.608,34.608
			c-4.408,0-8-3.592-8-8s3.592-8,8-8s8,3.592,8,8S79.016,34.608,74.608,34.608z M162.608,82.608c-4.408,0-8-3.592-8-8s3.592-8,8-8
			s8,3.592,8,8S167.016,82.608,162.608,82.608z M250.608,34.608c-4.408,0-8-3.592-8-8s3.592-8,8-8s8,3.592,8,8
			S255.016,34.608,250.608,34.608z M338.608,82.608c-4.408,0-8-3.592-8-8s3.592-8,8-8c4.408,0,8,3.592,8,8
			S343.016,82.608,338.608,82.608z M426.608,34.608c-4.408,0-8-3.592-8-8s3.592-8,8-8c4.408,0,8,3.592,8,8
			S431.016,34.608,426.608,34.608z"/>
	</g>
</g>
<g>
	<g>
		<path d="M490.336,460.552c-5.784-20.248-22.208-35.392-42.856-39.52l-44.872-8.984v-2.104c14.8-8.592,25.824-22.928,30.048-39.952
			c14.76-2.84,25.952-15.808,25.952-31.384v-55.016c0-0.336-0.072-0.648-0.08-0.984h0.08v-200h-64v97.272h16V98.608h32v148.32
			c-5.36-5-11.792-8.944-19.088-11.248c-3.672-4.968-8.072-9.208-12.912-12.808v-27h-16v18.36
			c-6.592-2.352-13.624-3.624-20.84-3.624c-1.064,0-2.104,0.136-3.16,0.168v-88.168h-64v114.336c-1.04-0.408-2.016-0.92-3.088-1.256
			c-5.6-7.584-12.792-13.624-20.912-17.904V82.608h-64v135.064c-8.792,3.688-16.856,8.752-24,14.872V122.608h-64v88.16
			c-8.32,0.288-16.384,1.592-24,3.976v-20.136h-16v26.896c-12.824,6.92-23.792,16.832-32,28.784V98.608h32v80h16v-96h-64v216h0.16
			c-0.04,1.056-0.16,2.088-0.16,3.16v36.84c0,15.576,11.192,28.544,25.952,31.392c4.224,17.024,15.248,31.36,30.048,39.952v2.104
			l-44.864,8.976c-20.656,4.128-37.08,19.272-42.864,39.52L0,498.608h120h10.608h240h10.608h120L490.336,460.552z M418.608,354.608
			c0,26.472-21.528,48-48,48c-22.368,0-41.608-15.784-46.584-37.224c8.76-5.712,14.584-15.56,14.584-26.776v-20.64
			c8.432-3.304,16.232-8.28,22.624-14.672l2.128-2.128l0.848,0.64c15.752,11.808,34.808,18.936,54.4,20.472V354.608z
			 M190.616,376.696c5.2,14.072,15.176,25.816,27.992,33.248v2.104l-27.992,5.6l-28.008-5.6v-2.136
			C175.352,402.496,185.392,390.8,190.616,376.696z M178.608,338.608c0-5.896,3.24-11,8-13.776v27.552
			C181.848,349.608,178.608,344.504,178.608,338.608z M202.608,354.608v-32.536c14.576-1.752,28.08-8.232,38.624-18.776l2.128-2.128
			l0.848,0.64c15.752,11.808,34.808,18.936,54.4,20.472v32.328c0,26.472-21.528,48-48,48S202.608,381.08,202.608,354.608z
			 M282.608,409.944c12.816-7.44,22.792-19.184,27.992-33.248c5.224,14.104,15.264,25.8,28.008,33.216v2.136l-28,5.6l-28-5.6
			V409.944z M314.608,352.384v-27.552c4.76,2.776,8,7.88,8,13.776S319.368,349.608,314.608,352.384z M434.608,352.384v-27.552
			c4.76,2.776,8,7.88,8,13.776S439.368,349.608,434.608,352.384z M322.608,138.608h32v74.056c-11.488,2.464-22.304,7.216-32,13.808
			V138.608z M373.768,226.608c15.376,0,29.656,7.64,38.184,20.44l1.712,2.576l3,0.752c15.28,3.816,25.944,17.472,25.944,33.216
			v27.464c-4.728-2.752-10.144-4.448-16-4.448c-18.912,0-37.664-6.248-52.8-17.6l-11.952-8.968l-11.936,11.936
			c-3.328,3.328-7.184,6.112-11.312,8.376v-16.768c0-14.376-6.136-27.496-16.12-36.76
			C336.344,233.896,354.608,226.608,373.768,226.608z M234.608,98.608h32v113.416c-4.184-0.888-8.472-1.416-12.84-1.416
			c-6.576,0-12.976,0.736-19.16,2.064V98.608z M253.768,226.608c15.376,0,29.656,7.64,38.184,20.44l1.712,2.576l3,0.752
			c15.28,3.816,25.944,17.472,25.944,33.216v27.464c-4.728-2.752-10.144-4.448-16-4.448c-18.912,0-37.664-6.248-52.8-17.6
			l-11.952-8.968l-11.936,11.936c-9.432,9.44-21.976,14.632-35.312,14.632c-5.856,0-11.272,1.696-16,4.448v-9.296
			C178.608,260.32,212.32,226.608,253.768,226.608z M146.608,138.608h32v91.248c-8.624-9.08-19.784-15.248-32-17.832V138.608z
			 M66.608,352.384c-4.76-2.776-8-7.88-8-13.776s3.24-11,8-13.776V352.384z M58.608,311.056v-9.296
			c0-41.44,33.712-75.152,75.16-75.152c15.376,0,29.656,7.64,38.184,20.44l1.712,2.576l3,0.752c0.512,0.128,0.976,0.384,1.48,0.536
			c-9.8,14.528-15.536,32.032-15.536,50.856v1.448c-10.36-2.952-20.184-7.744-28.8-14.208l-11.952-8.968l-11.936,11.936
			c-9.432,9.44-21.976,14.632-35.312,14.632C68.752,306.608,63.336,308.304,58.608,311.056z M82.608,354.608v-32.536
			c14.576-1.752,28.08-8.232,38.624-18.776l2.128-2.128l0.848,0.64c11.376,8.536,24.568,14.504,38.4,17.8v19
			c0,11.216,5.824,21.064,14.584,26.776c-4.976,21.44-24.216,37.224-46.584,37.224C104.136,402.608,82.608,381.08,82.608,354.608z
			 M124.576,482.608H21.216l5.048-17.664c4.136-14.464,15.864-25.288,30.616-28.232l57.728-11.544v-8.664
			c5.128,1.328,10.464,2.104,16,2.104c5.504,0,10.856-0.752,16-2.096v8.656l10.568,2.112c-12.6,7.104-22.176,18.848-26.296,33.272
			L124.576,482.608z M320.856,482.608l-6.488-25.944l-15.52,3.88l5.512,22.064H196.856l5.512-22.056l-15.52-3.88l-6.488,25.936
			h-39.144l5.048-17.664c4.136-14.464,15.864-25.288,30.616-28.232l57.728-11.544v-8.664c5.128,1.328,10.464,2.104,16,2.104
			s10.872-0.776,16-2.104v8.664l57.736,11.544c14.752,2.952,26.48,13.768,30.616,28.232l5.04,17.664H320.856z M376.64,482.608
			l-6.304-22.056c-4.12-14.424-13.696-26.16-26.296-33.272l10.568-2.112v-8.656c5.144,1.344,10.496,2.096,16,2.096
			c5.536,0,10.872-0.776,16-2.104v8.664l57.736,11.544c14.752,2.952,26.48,13.768,30.616,28.232l5.04,17.664H376.64z"/>
	</g>
</g>
<g>
</g>
<g>
</g>
<g>
</g>
<g>
</g>
<g>
</g>
<g>
</g>
<g>
</g>
<g>
</g>
<g>
</g>
<g>
</g>
<g>
</g>
<g>
</g>
<g>
</g>
<g>
</g>
<g>
</g>
</svg>
