<?xml version="1.0" encoding="iso-8859-1"?>
<!-- Generator: Adobe Illustrator 19.0.0, SVG Export Plug-In . SVG Version: 6.00 Build 0)  -->
<svg version="1.1" id="Layer_1" xmlns="http://www.w3.org/2000/svg" xmlns:xlink="http://www.w3.org/1999/xlink" x="0px" y="0px"
	 viewBox="0 0 512 512" style="enable-background:new 0 0 512 512;fill:#fff;" xml:space="preserve">
<g>
	<g>
		<path d="M492.378,97.011h-88.167V8.084c0-4.466-3.62-8.084-8.084-8.084H353.01c-4.465,0-8.084,3.619-8.084,8.084v88.926h-69.101
			c12.13-12.485,22.714-25.194,31.711-38.1l5.468,16.404c1.412,4.235,5.989,6.521,10.226,5.112
			c4.236-1.412,6.524-5.991,5.114-10.226l-10.779-32.337c-0.113-0.34-0.253-0.661-0.405-0.974c-0.038-0.077-0.077-0.152-0.116-0.227
			c-0.144-0.275-0.301-0.54-0.473-0.792c-0.023-0.032-0.041-0.068-0.065-0.099c-0.202-0.287-0.421-0.555-0.655-0.81
			c-0.044-0.049-0.092-0.094-0.138-0.141c-0.204-0.211-0.417-0.41-0.64-0.596c-0.052-0.043-0.101-0.088-0.154-0.13
			c-0.262-0.207-0.536-0.399-0.82-0.571c-0.066-0.04-0.134-0.074-0.201-0.112c-0.236-0.135-0.477-0.257-0.727-0.367
			c-0.081-0.037-0.161-0.074-0.244-0.108c-0.309-0.125-0.625-0.233-0.949-0.32c-0.059-0.016-0.12-0.026-0.18-0.041
			c-0.294-0.071-0.593-0.126-0.895-0.164c-0.044-0.005-0.085-0.019-0.128-0.024c-0.026-0.003-0.053,0-0.079-0.003
			c-0.348-0.034-0.7-0.05-1.054-0.039c-0.047,0.001-0.094,0.008-0.141,0.01c-0.299,0.015-0.598,0.047-0.898,0.096
			c-0.085,0.014-0.17,0.027-0.255,0.044c-0.328,0.065-0.655,0.142-0.981,0.249c-0.005,0.001-0.011,0.002-0.016,0.004
			c-0.004,0.001-0.009,0.002-0.014,0.003L275,43.531c-4.236,1.412-6.525,5.991-5.114,10.226c1.13,3.388,4.284,5.53,7.668,5.53
			c0.847,0,1.71-0.135,2.558-0.417l9.855-3.284c-11.044,14.837-23.839,28.687-37.395,41.426H19.622
			C8.803,97.011,0,105.813,0,116.632v20.04c0,10.82,8.803,19.622,19.622,19.622h12.715v234.758
			c0,13.199,10.738,23.937,23.938,23.937h159.304v80.842h-24.253c-4.465,0-8.084,3.619-8.084,8.084c0,4.466,3.62,8.084,8.084,8.084
			h129.347c4.465,0,8.084-3.618,8.084-8.084c0-4.466-3.62-8.084-8.084-8.084h-24.253v-80.842h159.304
			c13.199,0,23.938-10.738,23.938-23.937V156.295h12.715c10.82,0,19.622-8.802,19.622-19.622v-20.04
			C512,105.813,503.197,97.011,492.378,97.011z M361.095,16.168h26.947v317.979h-26.947V16.168z M259.108,113.179h85.819v26.947
			h-16.168v-13.474c0-4.466-3.62-8.084-8.084-8.084h-43.116c-4.465,0-8.084,3.619-8.084,8.084v13.474h-42.886
			C238.269,131.282,249.109,122.296,259.108,113.179z M320.674,267.068c-4.465,0-8.084,3.62-8.084,8.084v58.995h-26.947v-199.41
			h26.947V148.2c0,0.003,0,0.006,0,0.011c0,0.004,0,0.006,0,0.011v87.553c0,4.465,3.62,8.084,8.084,8.084
			c4.465,0,8.084-3.62,8.084-8.084v-79.48h16.168v177.853h-16.168v-58.995C328.758,270.687,325.138,267.068,320.674,267.068z
			 M19.622,140.126c-1.905,0-3.454-1.55-3.454-3.454v-20.04c0-1.905,1.549-3.454,3.454-3.454h214.684
			c-11.751,9.826-23.728,18.836-35.351,26.947H19.622z M280.253,495.832h-48.505v-80.842h48.505V495.832z M463.495,391.053
			c0,4.284-3.485,7.768-7.769,7.768H56.275c-4.284,0-7.769-3.485-7.769-7.768V156.295h126.002c-2.031,1.274-4.043,2.526-6.015,3.732
			c-47.404,28.996-87.558,45.193-87.958,45.352c-4.144,1.659-6.16,6.364-4.501,10.508c1.264,3.161,4.3,5.083,7.508,5.083
			c0.999,0,2.016-0.186,3-0.58c1.676-0.67,41.611-16.762,90.139-46.418c9.522-5.818,18.65-11.714,27.393-17.676h65.402v177.853
			h-16.168V191.326c0-4.466-3.62-8.084-8.084-8.084h-43.116c-4.465,0-8.084,3.618-8.084,8.084v142.821h-16.168v-88.926
			c0-4.466-3.62-8.084-8.084-8.084h-43.116c-4.465,0-8.084,3.618-8.084,8.084v88.926H94.316c-4.465,0-8.084,3.619-8.084,8.084
			c0,4.466,3.62,8.084,8.084,8.084h334.147c4.465,0,8.084-3.618,8.084-8.084c0-4.466-3.62-8.084-8.084-8.084h-24.253V156.295h59.284
			V391.053z M237.137,199.411v134.737h-26.947V199.411H237.137z M161.684,253.305v80.842h-26.947v-80.842H161.684z M495.832,136.673
			c0,1.905-1.55,3.454-3.454,3.454h-88.167v-26.947h88.167c1.905,0,3.454,1.55,3.454,3.454V136.673z"/>
	</g>
</g>
<g>
</g>
<g>
</g>
<g>
</g>
<g>
</g>
<g>
</g>
<g>
</g>
<g>
</g>
<g>
</g>
<g>
</g>
<g>
</g>
<g>
</g>
<g>
</g>
<g>
</g>
<g>
</g>
<g>
</g>
</svg>
