<?xml version="1.0" encoding="iso-8859-1"?>
<!-- Generator: Adobe Illustrator 21.0.0, SVG Export Plug-In . SVG Version: 6.00 Build 0)  -->
<svg version="1.1" id="Capa_1" xmlns="http://www.w3.org/2000/svg" xmlns:xlink="http://www.w3.org/1999/xlink" x="0px" y="0px"
	 viewBox="0 0 480.017 480.017" style="enable-background:new 0 0 480.017 480.017;fill:#404550;" xml:space="preserve">
<g>
	<g>
		<rect x="64.017" y="328.009" width="64" height="16"/>
	</g>
</g>
<g>
	<g>
		<path d="M64.017,352.009v16h8v8c0,13.255,10.745,24,24,24s24-10.745,24-24v-8h8v-16H64.017z M104.017,376.009c0,4.418-3.582,8-8,8
			s-8-3.582-8-8v-8h16V376.009z"/>
	</g>
</g>
<g>
	<g>
		<path d="M123.593,208.889c-2.565-1.276-5.616-1.084-8,0.504l-19.576,13.016l-19.56-13.04c-2.384-1.588-5.435-1.78-8-0.504l-32,16
			l7.152,14.32l27.848-13.928l20.136,13.424c2.688,1.794,6.192,1.794,8.88,0l20.12-13.44l27.848,13.968l7.152-14.32L123.593,208.889
			z"/>
	</g>
</g>
<g>
	<g>
		<path d="M448.017,280.009v-16h-32.72c-4.347-26.079-29.013-43.696-55.092-39.349c-9.011,1.502-17.404,5.551-24.188,11.669v-4.32
			c0-4.418-3.582-8-8-8h-96c-14.124,0.029-28.031,3.474-40.536,10.04c5.545-52.729-32.705-99.969-85.434-105.514
			C53.319,122.99,6.079,161.24,0.534,213.969s32.705,99.969,85.434,105.514c3.338,0.351,6.693,0.527,10.05,0.526
			c16.943-0.005,33.579-4.528,48.192-13.104c-0.104,1.696-0.192,3.4-0.192,5.104c0.057,48.577,39.423,87.943,88,88h96
			c4.418,0,8-3.582,8-8v-40c0-4.418-3.582-8-8-8h-96c-17.673,0-32-14.327-32-32c0-17.673,14.327-32,32-32h88.72
			c3.919,23.066,23.883,39.957,47.28,40h64v-16h-28.32c6.063-6.739,10.086-15.062,11.6-24H448.017z M118.553,300.721l9.328-51.28
			l-15.744-2.864l-10.4,57.144c-1.904,0.136-3.8,0.288-5.736,0.288c-1.936,0-3.816-0.152-5.72-0.288l-10.4-57.144l-15.744,2.864
			l9.328,51.28c-42.392-12.451-66.665-56.91-54.214-99.302c12.451-42.392,56.91-66.665,99.302-54.214s66.665,56.91,54.214,99.302
			C165.096,272.625,144.671,293.05,118.553,300.721z M304.017,360.009h16v24h-16V360.009z M288.017,264.009h-56
			c-26.51,0-48,21.49-48,48c0,26.51,21.49,48,48,48h56v24h-56c-39.746-0.044-71.956-32.254-72-72
			c0.04-6.461,0.95-12.886,2.704-19.104c10.467-10.147,18.488-22.543,23.456-36.248c12.871-10.726,29.086-16.615,45.84-16.648h56
			V264.009z M320.017,264.009h-16v-24h16V264.009z M368.017,304.009c-17.673,0-32-14.327-32-32c0-17.673,14.327-32,32-32
			c17.673,0,32,14.327,32,32C400.017,289.682,385.69,304.009,368.017,304.009z"/>
	</g>
</g>
<g>
	<g>
		<rect x="96.017" y="72.009" width="16" height="32"/>
	</g>
</g>
<g>
	<g>
		<rect x="216.017" y="184.009" width="32" height="16"/>
	</g>
</g>
<g>
	<g>
		<rect x="201.608" y="130.255" transform="matrix(0.8533 -0.5214 0.5214 0.8533 -40.1655 133.7322)" width="32" height="16"/>
	</g>
</g>
<g>
	<g>
		<rect x="154.975" y="94.179" transform="matrix(0.4639 -0.8859 0.8859 0.4639 1.1368 206.2364)" width="32" height="16"/>
	</g>
</g>
<g>
	<g>
		<path d="M264.017,24.009h24v-16h-16v-8h-16v9.472c-12.473,4.393-19.023,18.066-14.629,30.539
			c3.38,9.596,12.455,16.009,22.629,15.989c4.418,0,8,3.582,8,8s-3.582,8-8,8h-24v16h16v8h16v-9.472
			c12.473-4.393,19.023-18.066,14.629-30.539c-3.38-9.596-12.455-16.009-22.629-15.989c-4.418,0-8-3.582-8-8
			S259.599,24.009,264.017,24.009z"/>
	</g>
</g>
<g>
	<g>
		<path d="M403.726,55.591c-17.781-19.829-48.269-21.489-68.098-3.709c-19.829,17.781-21.489,48.269-3.709,68.098
			c13.071,14.576,33.657,19.804,52.098,13.229v4.152c-0.076,26.112-13.768,50.293-36.12,63.792l8.24,13.712
			c27.157-16.4,43.79-45.78,43.88-77.504v-13.672C419.846,105.908,421.507,75.419,403.726,55.591z M368.017,120.009
			c-17.673,0-32-14.327-32-32s14.327-32,32-32c17.673,0,32,14.327,32,32S385.69,120.009,368.017,120.009z"/>
	</g>
</g>
<g>
	<g>
		<rect x="464.017" y="264.009" width="16" height="16"/>
	</g>
</g>
<g>
	<g>
		<path d="M356.137,385.153l-8.24,13.712c22.352,13.499,36.044,37.68,36.12,63.792v17.352h16v-17.352
			C399.928,430.932,383.294,401.553,356.137,385.153z"/>
	</g>
</g>
<g>
	<g>
		<rect x="448.017" y="304.009" width="16" height="16"/>
	</g>
</g>
<g>
	<g>
		<path d="M456.017,136.009h24v-16h-16v-8h-16v9.472c-12.473,4.393-19.023,18.066-14.629,30.539
			c3.38,9.596,12.455,16.009,22.629,15.989c4.418,0,8,3.582,8,8s-3.582,8-8,8h-24v16h16v8h16v-9.472
			c12.473-4.393,19.023-18.066,14.629-30.539c-3.38-9.596-12.455-16.009-22.629-15.989c-4.418,0-8-3.582-8-8
			S451.599,136.009,456.017,136.009z"/>
	</g>
</g>
<g>
	<g>
		<path d="M432.017,368.009h24v-16h-16v-8h-16v9.472c-12.473,4.393-19.023,18.066-14.629,30.539
			c3.38,9.596,12.455,16.009,22.629,15.989c4.418,0,8,3.582,8,8s-3.582,8-8,8h-24v16h16v8h16v-9.472
			c12.473-4.393,19.023-18.066,14.63-30.539c-3.38-9.596-12.455-16.009-22.63-15.989c-4.418,0-8-3.582-8-8
			S427.599,368.009,432.017,368.009z"/>
	</g>
</g>
<g>
	<g>
		<path d="M379.146,275.872c-1.717-4.677-6.146-7.807-11.129-7.863c-2.209,0-4-1.791-4-4c0-2.209,1.791-4,4-4h8v-8h-4v-4h-8v4.736
			c-6.221,2.284-9.413,9.179-7.129,15.401c1.717,4.677,6.147,7.807,11.129,7.863c2.209,0,4,1.791,4,4c0,2.209-1.791,4-4,4h-8v8h4v4
			h8v-4.736C378.239,288.989,381.43,282.093,379.146,275.872z"/>
	</g>
</g>
<g>
	<g>
		<path d="M379.146,91.872c-1.717-4.677-6.147-7.807-11.129-7.863c-2.209,0-4-1.791-4-4c0-2.209,1.791-4,4-4h8v-8h-4v-4h-8v4.736
			c-6.221,2.284-9.413,9.179-7.129,15.401c1.717,4.677,6.146,7.807,11.129,7.863c2.209,0,4,1.791,4,4c0,2.209-1.791,4-4,4h-8v8h4v4
			h8v-4.736C378.239,104.989,381.43,98.093,379.146,91.872z"/>
	</g>
</g>
<g>
</g>
<g>
</g>
<g>
</g>
<g>
</g>
<g>
</g>
<g>
</g>
<g>
</g>
<g>
</g>
<g>
</g>
<g>
</g>
<g>
</g>
<g>
</g>
<g>
</g>
<g>
</g>
<g>
</g>
</svg>
